HIERARCHY
ROOT Hips
{
	OFFSET	0.00	0.00	0.00
	CHANNELS 6 Xposition Yposition Zposition Zrotation Xrotation Yrotation
	JOINT LeftUpLeg
	{
		OFFSET	 0.126116	-0.014019	-0.065224
		CHANNELS 3 Zrotation Xrotation Yrotation
		JOINT LeftLeg
		{
			OFFSET	 0.000000	 0.000000	 0.569914
			CHANNELS 3 Zrotation Xrotation Yrotation
			JOINT LeftFoot
			{
				OFFSET	 0.000000	 0.000000	 0.544423
				CHANNELS 3 Zrotation Xrotation Yrotation
				JOINT LeftToeBase
				{
					OFFSET	 0.000000	 0.000000	 0.207117
					CHANNELS 3 Zrotation Xrotation Yrotation
					End Site
					{
						OFFSET	 0.000000	 0.000000	 0.207117
					}
				}
			}
		}
	}
	JOINT RightUpLeg
	{
		OFFSET	-0.124023	-0.008373	-0.065224
		CHANNELS 3 Zrotation Xrotation Yrotation
		JOINT RightLeg
		{
			OFFSET	 0.000000	 0.000000	 0.570047
			CHANNELS 3 Zrotation Xrotation Yrotation
			JOINT RightFoot
			{
				OFFSET	 0.000000	 0.000000	 0.544354
				CHANNELS 3 Zrotation Xrotation Yrotation
				JOINT RightToeBase
				{
					OFFSET	 0.000000	 0.000000	 0.207540
					CHANNELS 3 Zrotation Xrotation Yrotation
					End Site
					{
						OFFSET	 0.000000	 0.000000	 0.207540
					}
				}
			}
		}
	}
	JOINT Spine
	{
		OFFSET	 0.000184	-0.007763	 0.117403
		CHANNELS 3 Zrotation Xrotation Yrotation
		JOINT Spine1
		{
			OFFSET	 0.000000	 0.000000	 0.137269
			CHANNELS 3 Zrotation Xrotation Yrotation
			JOINT Spine2
			{
				OFFSET	 0.000000	 0.000000	 0.156879
				CHANNELS 3 Zrotation Xrotation Yrotation
				JOINT LeftShoulder
				{
					OFFSET	 0.080501	-0.002496	 0.160144
					CHANNELS 3 Zrotation Xrotation Yrotation
					JOINT LeftArm
					{
						OFFSET	 0.000000	 0.000000	 0.164363
						CHANNELS 3 Zrotation Xrotation Yrotation
						JOINT LeftForeArm
						{
							OFFSET	 0.000000	 0.000000	 0.364576
							CHANNELS 3 Zrotation Xrotation Yrotation
							JOINT LeftHand
							{
								OFFSET	 0.000000	 0.000000	 0.360812
								CHANNELS 3 Zrotation Xrotation Yrotation
								JOINT LeftHandIndex1
								{
									OFFSET	 0.000000	 0.000000	 0.086006
									CHANNELS 3 Zrotation Xrotation Yrotation
									JOINT LeftHandIndex2
									{
										OFFSET	 0.000000	 0.000000	 0.047236
										CHANNELS 3 Zrotation Xrotation Yrotation
										JOINT LeftHandIndex3
										{
											OFFSET	-0.004284	-0.000551	 0.038166
											CHANNELS 3 Zrotation Xrotation Yrotation
											End Site
											{
												OFFSET	-0.004284	-0.000551	 0.038166
											}
										}
									}
								}
							}
						}
					}
				}
				JOINT Neck
				{
					OFFSET	 0.000000	 0.000000	 0.176489
					CHANNELS 3 Zrotation Xrotation Yrotation
					JOINT Head
					{
						OFFSET	 0.000000	-0.001747	 0.077940
						CHANNELS 3 Zrotation Xrotation Yrotation
						End Site
						{
							OFFSET	 0.000000	-0.001747	 0.077940
						}
					}
				}
				JOINT RightShoulder
				{
					OFFSET	-0.080363	 0.000306	 0.159706
					CHANNELS 3 Zrotation Xrotation Yrotation
					JOINT RightArm
					{
						OFFSET	 0.000000	 0.000000	 0.164196
						CHANNELS 3 Zrotation Xrotation Yrotation
						JOINT RightForeArm
						{
							OFFSET	 0.000000	 0.000000	 0.365611
							CHANNELS 3 Zrotation Xrotation Yrotation
							JOINT RightHand
							{
								OFFSET	 0.000000	 0.000000	 0.360648
								CHANNELS 3 Zrotation Xrotation Yrotation
								JOINT RightHandIndex1
								{
									OFFSET	 0.000000	 0.000000	 0.069977
									CHANNELS 3 Zrotation Xrotation Yrotation
									JOINT RightHandIndex2
									{
										OFFSET	 0.000000	 0.000000	 0.052305
										CHANNELS 3 Zrotation Xrotation Yrotation
										JOINT RightHandIndex3
										{
											OFFSET	 0.009002	-0.000782	 0.042196
											CHANNELS 3 Zrotation Xrotation Yrotation
											End Site
											{
												OFFSET	 0.009002	-0.000782	 0.042196
											}
										}
									}
								}
							}
						}
					}
				}
			}
		}
	}
}
MOTION
Frames:    7
Frame Time: 0.03333334
 0.014237	 0.064444	 1.202401	 4.170002	-1.521567	-2.746046	 3.769865	-12.176240	-172.614000	 0.441341	-39.159930	 0.036901	 52.520350	 81.030850	-56.248210	-2.371017	 31.341780	-0.063749	-6.819233	-29.238200	-175.589100	 10.347330	-52.704300	 8.821133	 11.465500	 71.837680	-6.714436	 2.358018	 33.139050	 0.106454	-6.081322	 8.801578	 2.199799	-2.065134	 2.046378	-1.550074	 3.374946	-1.820755	 1.632786	-93.801450	 58.865000	 175.692200	 15.856070	 36.245940	-38.071530	-0.605933	-0.057733	-0.540734	-0.765247	-18.436540	-6.474262	-4.870797	 19.211050	-2.785631	-3.885329	 21.424130	 2.206615	-4.807796	 5.550965	 0.146647	-0.117397	-5.025603	 0.162998	 1.115690	 2.057375	 2.885546	 89.823040	 61.593100	-179.902500	-20.726520	 52.642970	 14.198810	-1.345343	-1.407551	 7.419914	-4.826328	-4.384004	 0.745559	 6.302372	 25.781350	-0.570832	 1.757846	 45.712020	-6.879004	 0.384820	 24.893260	 3.640582
 0.011493	 0.012274	 1.199038	 5.911391	-0.245024	-2.766931	 2.125310	-10.824590	-173.063000	 1.362562	-38.837160	 0.633329	 60.986230	 82.332460	-65.433130	-2.368044	 31.838210	-0.074991	-11.598010	-34.110200	-176.468400	 11.222970	-46.200150	 8.707965	 28.906460	 80.645840	-26.387590	 2.359062	 32.987400	 0.102923	-8.769611	 7.954776	 1.797461	-2.140073	 1.949448	-1.276068	 3.048286	-2.483151	 1.574436	-94.177790	 58.992110	 174.874200	 15.167230	 32.613010	-39.990710	-2.534404	-0.032828	-1.016926	-0.928923	-20.196950	-9.025510	-4.862498	 19.438850	-2.803807	-3.866103	 21.669680	 2.187078	-4.803432	 5.602343	 0.143645	-0.025187	-5.115016	 0.251044	 1.069972	 1.692225	 2.588741	 89.688960	 61.807540	 179.776600	-19.739760	 54.423870	 9.765231	-1.578414	-1.783857	 9.728547	-4.521624	-4.553720	 0.283661	 6.270290	 23.127210	-0.557619	 2.090506	 42.988010	-7.174958	 0.889828	 22.658550	 3.388199
 0.009867	-0.032185	 1.195869	 6.383725	 0.580387	-3.144264	 1.647292	-8.821810	-173.106400	 1.571994	-37.700680	 0.745701	 69.619060	 83.172810	-74.227790	-2.365485	 32.249800	-0.084378	-12.905770	-36.260750	-176.874400	 11.008840	-38.335650	 7.362120	 29.805710	 79.361000	-28.669060	 2.361427	 32.632310	 0.094712	-10.004570	 7.199088	 1.862758	-2.216409	 2.432561	-1.024231	 2.872050	-2.998077	 1.461177	-94.371310	 58.984970	 174.462800	 13.704960	 30.016710	-41.421510	-3.903684	-0.008669	-1.321387	-1.302520	-21.700330	-8.730326	-4.845912	 19.816500	-2.819493	-3.848197	 21.896880	 2.168891	-4.793565	 5.718612	 0.136821	-0.004793	-5.184940	 0.315972	 0.941845	 1.516367	 2.563168	 89.554220	 61.963750	 179.450500	-18.959770	 55.422300	 7.647217	-2.353103	-1.717424	 9.163853	-4.918266	-4.640038	-0.630532	 6.237764	 21.229770	-0.621874	 2.261682	 41.468400	-7.325351	 1.317532	 20.697650	 3.187454
 0.007752	-0.079289	 1.191109	 6.535111	 1.005237	-3.507050	 1.346441	-6.056120	-173.229500	 1.677729	-36.218010	 0.782988	 76.389360	 83.860460	-81.037510	-2.358541	 33.296730	-0.108563	-12.268210	-36.732480	-176.778000	 9.982064	-29.263730	 5.297259	 51.222350	 80.808010	-50.741210	 2.352409	 33.931130	 0.125022	-11.219330	 6.557597	 2.016354	-2.264835	 3.389224	-0.810533	 2.757844	-3.614203	 1.358578	-94.473660	 58.961760	 174.248400	 11.912670	 27.977860	-42.688550	-5.142344	 0.021082	-1.634565	-2.039700	-22.694590	-8.363298	-4.825193	 20.228330	-2.822749	-3.824457	 22.196090	 2.144778	-4.770472	 5.989748	 0.120836	 0.023777	-5.280242	 0.343335	 0.844820	 1.307983	 2.508193	 89.443890	 62.048740	 179.181700	-17.709780	 56.064430	 6.106596	-3.348045	-1.285172	 7.009899	-5.306824	-5.032948	-2.047008	 6.195179	 19.011870	-0.710916	 2.539061	 38.816970	-7.565845	 1.783643	 18.491100	 2.983051
 0.004533	-0.126552	 1.183236	 6.825004	 1.085037	-3.773555	 0.877578	-3.005601	-173.522700	 1.905494	-34.985000	 0.890447	 76.723240	 84.411600	-81.444340	-2.339606	 35.773630	-0.167624	-11.919800	-38.169690	-176.768400	 10.310360	-23.762150	 4.506867	 54.059000	 79.449940	-54.616950	 2.335973	 36.000240	 0.174858	-12.793740	 6.496098	 2.131328	-2.278430	 3.861537	-0.610317	 2.646983	-4.265934	 1.251651	-94.542540	 58.902920	 174.111500	 10.205090	 26.806190	-43.495350	-5.828871	 0.054847	-1.985019	-3.034993	-24.421150	-8.955706	-4.841880	 20.483300	-2.994642	-3.793531	 22.582280	 2.113369	-4.730624	 6.455102	 0.093115	 0.097912	-5.386114	 0.354876	 0.805025	 1.150780	 2.237491	 89.362910	 61.981730	 178.988300	-16.088200	 56.446900	 3.707967	-4.169018	-0.992627	 5.903451	-5.303520	-6.124069	-3.452171	 6.164804	 16.566470	-0.700887	 2.838775	 35.661750	-7.820607	 2.280713	 16.061220	 2.782519
-0.000206	-0.170142	 1.173648	 7.050102	 1.037972	-3.562999	 0.292135	-0.196069	-174.310800	 2.376641	-34.200340	 1.137948	 60.441590	 84.488220	-65.280170	-2.295065	 40.262270	-0.282682	-11.518460	-40.886600	-177.227700	 10.058360	-22.406870	 4.165297	 33.041550	 75.887860	-33.405610	 2.338194	 35.739930	 0.168474	-14.361970	 6.418313	 1.945482	-2.218201	 4.528287	-0.552918	 2.520742	-4.840980	 1.160104	-94.524510	 59.159640	 174.107200	 8.805046	 26.415950	-44.297360	-6.441452	 0.092827	-2.316868	-4.356641	-26.282060	-9.985803	-4.872440	 20.585190	-3.202571	-3.768644	 22.890300	 2.088094	-4.685081	 6.983373	 0.061227	 0.168456	-5.469966	 0.289677	 0.825819	 1.081430	 2.045878	 89.356380	 61.708450	 178.982800	-14.832760	 56.627310	 0.317795	-4.598252	-1.404044	 7.867861	-5.320932	-7.442922	-4.462846	 6.182494	 14.420820	-0.478685	 2.994859	 33.887260	-7.950852	 2.701929	 13.943440	 2.627403
-0.006357	-0.217204	 1.163872	 7.284643	 0.735307	-2.811405	 0.048332	 3.178577	-175.855200	 1.967165	-33.010380	 0.879702	 31.374360	 82.586210	-35.298590	-2.182742	 47.758770	-0.507340	-9.855970	-42.821210	-177.496900	 7.162096	-22.327620	 3.025329	 14.197260	 69.686130	-10.922530	 2.340486	 35.464050	 0.161755	-16.006480	 6.434973	 1.196374	-2.160092	 5.367641	-0.339152	 2.345496	-5.291241	 0.915902	-94.464350	 59.343920	 174.205400	 7.670522	 26.153380	-44.993410	-7.252969	 0.140007	-2.653180	-5.496078	-27.419380	-10.506390	-4.890907	 20.697140	-3.345883	-3.755561	 23.051190	 2.074812	-4.634603	 7.564117	 0.025630	 0.247193	-5.476664	 0.247345	 0.857035	 1.133379	 2.155328	 89.354060	 61.460090	 178.986400	-13.781180	 56.575520	-2.237206	-4.828312	-1.636161	 9.168420	-5.582227	-8.816987	-5.050599	 6.257309	 12.320150	-0.039373	 3.113827	 32.469870	-8.048882	 3.067714	 12.063690	 2.504218
